<mxfile host="app.diagrams.net" modified="2020-12-09T07:36:49.419Z" agent="5.0 (Macintosh; Intel Mac OS X 11_0_1) AppleWebKit/537.36 (KHTML, like Gecko) Chrome/87.0.4280.88 Safari/537.36 Edg/87.0.664.57" etag="zNm-hX8sEbdAMIDiRGa4" version="13.11.0" type="github">
  <diagram id="U0N_SxTG264qBtzNGbrM" name="Page-1">
    <mxGraphModel dx="946" dy="621" grid="1" gridSize="10" guides="1" tooltips="1" connect="1" arrows="1" fold="1" page="1" pageScale="1" pageWidth="827" pageHeight="1169" math="0" shadow="0">
      <root>
        <mxCell id="0" />
        <mxCell id="1" parent="0" />
        <mxCell id="3phkiqsdyby_MGjaKC17-2" style="edgeStyle=orthogonalEdgeStyle;rounded=0;orthogonalLoop=1;jettySize=auto;html=1;exitX=0.5;exitY=1;exitDx=0;exitDy=0;entryX=0.5;entryY=0;entryDx=0;entryDy=0;" edge="1" parent="1" source="h6yfB7R2HLGsSNviUl_0-13" target="3phkiqsdyby_MGjaKC17-1">
          <mxGeometry relative="1" as="geometry" />
        </mxCell>
        <mxCell id="h6yfB7R2HLGsSNviUl_0-13" value="" style="rounded=0;whiteSpace=wrap;html=1;fillColor=#f5f5f5;strokeColor=#666666;fontColor=#333333;" parent="1" vertex="1">
          <mxGeometry x="50" y="440" width="730" height="160" as="geometry" />
        </mxCell>
        <mxCell id="h6yfB7R2HLGsSNviUl_0-3" style="edgeStyle=orthogonalEdgeStyle;rounded=0;orthogonalLoop=1;jettySize=auto;html=1;exitX=0.5;exitY=1;exitDx=0;exitDy=0;entryX=0.5;entryY=0;entryDx=0;entryDy=0;" parent="1" source="uU_8sE9taWTESEd529NY-1" target="OlJf99hs29sx-5dy_cRB-1" edge="1">
          <mxGeometry relative="1" as="geometry" />
        </mxCell>
        <object label="Customer initiates conversation" Text="Hello" id="uU_8sE9taWTESEd529NY-1">
          <mxCell style="whiteSpace=wrap;html=1;" parent="1" vertex="1">
            <mxGeometry x="320" y="10" width="120" height="40" as="geometry" />
          </mxCell>
        </object>
        <mxCell id="h6yfB7R2HLGsSNviUl_0-6" style="edgeStyle=orthogonalEdgeStyle;rounded=0;orthogonalLoop=1;jettySize=auto;html=1;exitX=0.5;exitY=1;exitDx=0;exitDy=0;entryX=0.417;entryY=0;entryDx=0;entryDy=0;entryPerimeter=0;" parent="1" source="OlJf99hs29sx-5dy_cRB-1" target="NbX_CwYFaCdgJ4iMznPi-1" edge="1">
          <mxGeometry relative="1" as="geometry" />
        </mxCell>
        <mxCell id="h6yfB7R2HLGsSNviUl_0-8" style="edgeStyle=orthogonalEdgeStyle;rounded=0;orthogonalLoop=1;jettySize=auto;html=1;entryX=0.5;entryY=0;entryDx=0;entryDy=0;" parent="1" source="OlJf99hs29sx-5dy_cRB-1" target="NbX_CwYFaCdgJ4iMznPi-3" edge="1">
          <mxGeometry relative="1" as="geometry" />
        </mxCell>
        <mxCell id="OlJf99hs29sx-5dy_cRB-1" value="Bot picks up with a greeting to send orders&amp;nbsp;" style="whiteSpace=wrap;html=1;" parent="1" vertex="1">
          <mxGeometry x="320" y="100" width="120" height="60" as="geometry" />
        </mxCell>
        <mxCell id="h6yfB7R2HLGsSNviUl_0-9" style="edgeStyle=orthogonalEdgeStyle;rounded=0;orthogonalLoop=1;jettySize=auto;html=1;exitX=0.5;exitY=1;exitDx=0;exitDy=0;entryX=0.5;entryY=0;entryDx=0;entryDy=0;" parent="1" source="NbX_CwYFaCdgJ4iMznPi-1" target="NbX_CwYFaCdgJ4iMznPi-7" edge="1">
          <mxGeometry relative="1" as="geometry" />
        </mxCell>
        <mxCell id="NbX_CwYFaCdgJ4iMznPi-1" value="Handwritten orders" style="whiteSpace=wrap;html=1;" parent="1" vertex="1">
          <mxGeometry x="160" y="200" width="120" height="60" as="geometry" />
        </mxCell>
        <mxCell id="h6yfB7R2HLGsSNviUl_0-10" style="edgeStyle=orthogonalEdgeStyle;rounded=0;orthogonalLoop=1;jettySize=auto;html=1;exitX=0.5;exitY=1;exitDx=0;exitDy=0;entryX=0.5;entryY=0;entryDx=0;entryDy=0;" parent="1" source="NbX_CwYFaCdgJ4iMznPi-3" target="NbX_CwYFaCdgJ4iMznPi-5" edge="1">
          <mxGeometry relative="1" as="geometry" />
        </mxCell>
        <mxCell id="NbX_CwYFaCdgJ4iMznPi-3" value="Orders placed via Audio&amp;nbsp;" style="whiteSpace=wrap;html=1;" parent="1" vertex="1">
          <mxGeometry x="320" y="200" width="120" height="60" as="geometry" />
        </mxCell>
        <mxCell id="h6yfB7R2HLGsSNviUl_0-7" style="edgeStyle=orthogonalEdgeStyle;rounded=0;orthogonalLoop=1;jettySize=auto;html=1;exitX=0.5;exitY=0;exitDx=0;exitDy=0;" parent="1" source="NbX_CwYFaCdgJ4iMznPi-4" edge="1">
          <mxGeometry relative="1" as="geometry">
            <mxPoint x="380" y="160" as="targetPoint" />
          </mxGeometry>
        </mxCell>
        <mxCell id="NbX_CwYFaCdgJ4iMznPi-4" value="Orders placed in text" style="whiteSpace=wrap;html=1;" parent="1" vertex="1">
          <mxGeometry x="480" y="200" width="120" height="60" as="geometry" />
        </mxCell>
        <mxCell id="NbX_CwYFaCdgJ4iMznPi-5" value="Speech to Text" style="whiteSpace=wrap;html=1;" parent="1" vertex="1">
          <mxGeometry x="320" y="320" width="120" height="60" as="geometry" />
        </mxCell>
        <mxCell id="NbX_CwYFaCdgJ4iMznPi-7" value="Ink to &amp;nbsp;Text" style="whiteSpace=wrap;html=1;" parent="1" vertex="1">
          <mxGeometry x="160" y="320" width="120" height="60" as="geometry" />
        </mxCell>
        <mxCell id="NbX_CwYFaCdgJ4iMznPi-9" value="Extract order info: item, quantity, metrics, brand" style="whiteSpace=wrap;html=1;" parent="1" vertex="1">
          <mxGeometry x="160" y="490" width="400" height="60" as="geometry" />
        </mxCell>
        <mxCell id="h6yfB7R2HLGsSNviUl_0-14" value="&lt;b&gt;DIALOG FLOW&lt;/b&gt;" style="text;html=1;strokeColor=none;fillColor=none;align=center;verticalAlign=middle;whiteSpace=wrap;rounded=0;" parent="1" vertex="1">
          <mxGeometry x="60" y="450" width="100" height="20" as="geometry" />
        </mxCell>
        <mxCell id="3phkiqsdyby_MGjaKC17-1" value="" style="rounded=0;whiteSpace=wrap;html=1;fillColor=#fff2cc;strokeColor=#d6b656;" vertex="1" parent="1">
          <mxGeometry x="45" y="730" width="740" height="410" as="geometry" />
        </mxCell>
        <mxCell id="3phkiqsdyby_MGjaKC17-3" value="Order received as separate line items" style="rounded=0;whiteSpace=wrap;html=1;" vertex="1" parent="1">
          <mxGeometry x="354" y="760" width="120" height="60" as="geometry" />
        </mxCell>
        <mxCell id="3phkiqsdyby_MGjaKC17-4" value="Corrections (brand/qty/unavailability)" style="rounded=0;whiteSpace=wrap;html=1;" vertex="1" parent="1">
          <mxGeometry x="354" y="860" width="120" height="60" as="geometry" />
        </mxCell>
        <mxCell id="3phkiqsdyby_MGjaKC17-5" value="&lt;meta charset=&quot;utf-8&quot;&gt;&lt;span style=&quot;color: rgb(0, 0, 0); font-family: helvetica; font-size: 12px; font-style: normal; font-weight: 400; letter-spacing: normal; text-align: center; text-indent: 0px; text-transform: none; word-spacing: 0px; background-color: rgb(248, 249, 250); display: inline; float: none;&quot;&gt;Send to mobile app&lt;/span&gt;" style="text;html=1;strokeColor=none;fillColor=none;align=center;verticalAlign=middle;whiteSpace=wrap;rounded=0;" vertex="1" parent="1">
          <mxGeometry x="60" y="740" width="140" height="20" as="geometry" />
        </mxCell>
        <mxCell id="3phkiqsdyby_MGjaKC17-6" value="Send updated Order" style="rounded=0;whiteSpace=wrap;html=1;" vertex="1" parent="1">
          <mxGeometry x="354" y="960" width="120" height="60" as="geometry" />
        </mxCell>
        <mxCell id="3phkiqsdyby_MGjaKC17-8" value="Confirm Order" style="rhombus;whiteSpace=wrap;html=1;" vertex="1" parent="1">
          <mxGeometry x="363" y="1040" width="104" height="80" as="geometry" />
        </mxCell>
      </root>
    </mxGraphModel>
  </diagram>
</mxfile>
